<svg width="29" height="22" viewBox="0 0 29 22" fill="none" xmlns="http://www.w3.org/2000/svg">
<path d="M10.391 17.5468C9.80975 18.3946 9.1872 19.2133 8.52564 20C3.79487 19.8654 2 16.7949 2 16.7949C2.06657 12.4443 3.12089 8.1656 5.08333 4.2821C6.80781 2.93302 8.90906 2.15346 11.0962 2.05133L11.7372 3.5321C12.6528 3.40557 13.5757 3.33919 14.5 3.33338C15.4284 3.33651 16.3557 3.40075 17.2756 3.52569L17.9167 2.04492C20.1059 2.15258 22.2074 2.93894 23.9295 4.29492C25.8856 8.17559 26.9355 12.4496 27 16.7949C27 16.7949 25.2051 19.8654 20.4744 20C19.8224 19.2175 19.2105 18.4023 18.641 17.5577M22.7821 15.6988C20.3205 16.9456 17.9391 18.1924 14.5 18.1924C11.0609 18.1924 8.67949 16.9456 6.21795 15.6988" stroke="#D9D9D9" stroke-width="2.5" stroke-linecap="round" stroke-linejoin="round"/>
<path d="M8.4082 12.4551C8.4082 11.8855 8.63445 11.3393 9.03717 10.9366C9.4399 10.5339 9.9861 10.3076 10.5556 10.3076C11.1252 10.3076 11.6714 10.5339 12.0741 10.9366C12.4768 11.3393 12.7031 11.8855 12.7031 12.4551M16.2967 12.4551C16.2967 11.8855 16.5229 11.3393 16.9256 10.9366C17.3284 10.5339 17.8746 10.3076 18.4441 10.3076C19.0136 10.3076 19.5598 10.5339 19.9626 10.9366C20.3653 11.3393 20.5915 11.8855 20.5915 12.4551" stroke="#D9D9D9" stroke-width="2.5" stroke-linecap="round" stroke-linejoin="round"/>
</svg>
