<svg width="24" height="24" viewBox="0 0 24 24" fill="none" xmlns="http://www.w3.org/2000/svg">
<path d="M2 20.4615V3.53846C2 3.13044 2.16209 2.73912 2.4506 2.4506C2.73912 2.16209 3.13044 2 3.53846 2H20.4615C20.8696 2 21.2609 2.16209 21.5494 2.4506C21.8379 2.73912 22 3.13044 22 3.53846V20.4615C22 20.8696 21.8379 21.2609 21.5494 21.5494C21.2609 21.8379 20.8696 22 20.4615 22H15.8462V14.7077H16.9385C17.1874 14.7077 17.4261 14.6088 17.6021 14.4328C17.778 14.2568 17.8769 14.0181 17.8769 13.7692V12.5846C17.8769 12.3357 17.778 12.097 17.6021 11.921C17.4261 11.745 17.1874 11.6462 16.9385 11.6462H15.9077V10.2C15.9077 8.90769 16.4923 8.90769 17.0769 8.90769H17.8308C17.9546 8.91279 18.078 8.89063 18.1923 8.84278C18.3066 8.79493 18.409 8.72255 18.4923 8.63077C18.5817 8.54565 18.6525 8.44291 18.7002 8.32904C18.7478 8.21518 18.7713 8.09266 18.7692 7.96923V6.83077C18.7733 6.70549 18.7527 6.58063 18.7085 6.46333C18.6644 6.34603 18.5975 6.23859 18.5118 6.14715C18.426 6.0557 18.3231 5.98205 18.2089 5.93041C18.0947 5.87876 17.9714 5.85013 17.8462 5.84615H16.0769C15.5607 5.82675 15.0464 5.91963 14.5696 6.1184C14.0927 6.31716 13.6647 6.61706 13.3151 6.99739C12.9655 7.37772 12.7026 7.8294 12.5446 8.32125C12.3866 8.81309 12.3373 9.33337 12.4 9.84615V11.6462H11.4154C11.2909 11.6441 11.1672 11.6669 11.0515 11.7131C10.9359 11.7594 10.8306 11.8282 10.7418 11.9155C10.653 12.0029 10.5825 12.107 10.5344 12.2219C10.4863 12.3368 10.4615 12.4601 10.4615 12.5846V13.7692C10.4615 13.8938 10.4863 14.0171 10.5344 14.132C10.5825 14.2468 10.653 14.351 10.7418 14.4383C10.8306 14.5257 10.9359 14.5945 11.0515 14.6407C11.1672 14.687 11.2909 14.7097 11.4154 14.7077H12.4V22H3.53846C3.13044 22 2.73912 21.8379 2.4506 21.5494C2.16209 21.2609 2 20.8696 2 20.4615Z" stroke="#D9D9D9" stroke-width="2.5" stroke-linecap="round" stroke-linejoin="round"/>
</svg>
