<svg width="286" height="38" viewBox="0 0 286 38" fill="none" xmlns="http://www.w3.org/2000/svg">
<path d="M210.147 21.4C210.147 21.4 211.934 23.8 214.912 23.8C217.89 23.8 219.676 21.4 219.676 21.4M211.338 15.4H211.35M218.485 15.4H218.497M248.265 23.8C248.265 23.8 246.478 21.4 243.5 21.4C240.522 21.4 238.735 23.8 238.735 23.8M239.926 15.4H239.938M247.074 15.4H247.085M267.324 22.6H276.853M268.515 15.4H268.527M275.662 15.4H275.674M226.824 19C226.824 25.6274 221.49 31 214.912 31C208.333 31 203 25.6274 203 19C203 12.3726 208.333 7 214.912 7C221.49 7 226.824 12.3726 226.824 19ZM255.412 19C255.412 25.6274 250.079 31 243.5 31C236.921 31 231.588 25.6274 231.588 19C231.588 12.3726 236.921 7 243.5 7C250.079 7 255.412 12.3726 255.412 19ZM284 19C284 25.6274 278.667 31 272.088 31C265.51 31 260.176 25.6274 260.176 19C260.176 12.3726 265.51 7 272.088 7C278.667 7 284 12.3726 284 19Z" stroke="#F8CD43" stroke-width="3" stroke-linecap="round" stroke-linejoin="round"/>
<path d="M11.072 31.288C8.08533 31.288 5.696 30.6267 3.904 29.304C2.112 27.96 1.06667 26.072 0.768 23.64H5.504C5.65333 24.8773 6.25067 25.8587 7.296 26.584C8.34133 27.288 9.67467 27.64 11.296 27.64C12.6187 27.64 13.632 27.4053 14.336 26.936C15.0613 26.4667 15.424 25.8373 15.424 25.048C15.424 24.3013 15.2107 23.704 14.784 23.256C14.3573 22.7867 13.6213 22.4133 12.576 22.136L8.288 20.952C6.09067 20.3333 4.48 19.4907 3.456 18.424C2.45333 17.336 1.952 15.9813 1.952 14.36C1.952 12.9733 2.304 11.7787 3.008 10.776C3.73333 9.752 4.74667 8.97333 6.048 8.44C7.34933 7.88533 8.87467 7.608 10.624 7.608C13.312 7.608 15.456 8.248 17.056 9.528C18.656 10.7867 19.5627 12.4613 19.776 14.552H15.04C14.8267 13.4213 14.304 12.5893 13.472 12.056C12.6613 11.5227 11.616 11.256 10.336 11.256C9.22667 11.256 8.34133 11.4693 7.68 11.896C7.01867 12.3227 6.688 12.8987 6.688 13.624C6.688 14.1787 6.86933 14.6907 7.232 15.16C7.59467 15.608 8.352 15.992 9.504 16.312L13.792 17.496C16.0533 18.1147 17.6747 18.968 18.656 20.056C19.6587 21.1227 20.16 22.4773 20.16 24.12C20.16 26.424 19.36 28.1947 17.76 29.432C16.16 30.6693 13.9307 31.288 11.072 31.288ZM27.4055 31V21.688L18.8295 7.96H24.7495L31.5335 20.152H28.7495L35.5015 7.96H40.9095L32.3335 21.688V31H27.4055ZM41.8988 31V7.96H48.2668L58.5068 28.312L56.9388 28.696V7.96H61.7388V31H55.3708L45.1308 10.648L46.6988 10.264V31H41.8988ZM74.882 31.32C73.218 31.32 71.682 31.032 70.274 30.456C68.866 29.8587 67.6393 29.0267 66.594 27.96C65.57 26.8933 64.77 25.6347 64.194 24.184C63.618 22.712 63.33 21.112 63.33 19.384C63.33 17.656 63.6073 16.0773 64.162 14.648C64.738 13.2187 65.538 11.9813 66.562 10.936C67.6073 9.86933 68.834 9.05867 70.242 8.504C71.65 7.928 73.1967 7.64 74.882 7.64C76.7807 7.64 78.4873 8.01333 80.002 8.76C81.538 9.48533 82.786 10.52 83.746 11.864C84.7273 13.1867 85.3247 14.744 85.538 16.536H80.738C80.4607 14.8933 79.7887 13.656 78.722 12.824C77.6553 11.9707 76.386 11.544 74.914 11.544C73.6127 11.544 72.4607 11.8533 71.458 12.472C70.4767 13.0907 69.7087 13.9867 69.154 15.16C68.5993 16.312 68.322 17.7093 68.322 19.352C68.322 21.016 68.5993 22.456 69.154 23.672C69.73 24.8667 70.5193 25.7947 71.522 26.456C72.5247 27.096 73.6767 27.416 74.978 27.416C76.3647 27.416 77.5913 27 78.658 26.168C79.7247 25.336 80.418 24.0987 80.738 22.456H85.602C85.3247 24.248 84.6953 25.816 83.714 27.16C82.7327 28.4827 81.4847 29.5067 79.97 30.232C78.4553 30.9573 76.7593 31.32 74.882 31.32ZM96.482 31.288C93.4953 31.288 91.106 30.6267 89.314 29.304C87.522 27.96 86.4767 26.072 86.178 23.64H90.914C91.0633 24.8773 91.6607 25.8587 92.706 26.584C93.7513 27.288 95.0847 27.64 96.706 27.64C98.0287 27.64 99.042 27.4053 99.746 26.936C100.471 26.4667 100.834 25.8373 100.834 25.048C100.834 24.3013 100.621 23.704 100.194 23.256C99.7673 22.7867 99.0313 22.4133 97.986 22.136L93.698 20.952C91.5007 20.3333 89.89 19.4907 88.866 18.424C87.8633 17.336 87.362 15.9813 87.362 14.36C87.362 12.9733 87.714 11.7787 88.418 10.776C89.1433 9.752 90.1567 8.97333 91.458 8.44C92.7593 7.88533 94.2847 7.608 96.034 7.608C98.722 7.608 100.866 8.248 102.466 9.528C104.066 10.7867 104.973 12.4613 105.186 14.552H100.45C100.237 13.4213 99.714 12.5893 98.882 12.056C98.0713 11.5227 97.026 11.256 95.746 11.256C94.6367 11.256 93.7513 11.4693 93.09 11.896C92.4287 12.3227 92.098 12.8987 92.098 13.624C92.098 14.1787 92.2793 14.6907 92.642 15.16C93.0047 15.608 93.762 15.992 94.914 16.312L99.202 17.496C101.463 18.1147 103.085 18.968 104.066 20.056C105.069 21.1227 105.57 22.4773 105.57 24.12C105.57 26.424 104.77 28.1947 103.17 29.432C101.57 30.6693 99.3407 31.288 96.482 31.288ZM105.468 31L113.724 7.96H117.948L110.364 31H105.468ZM122.364 31L114.812 7.96H119.228L127.484 31H122.364ZM109.82 22.072H122.748V25.912H109.82V22.072ZM131.903 31V11.736H124.383V7.96H144.351V11.736H136.831V31H131.903ZM145.755 31V7.96H150.683V31H145.755ZM164.088 31.32C162.381 31.32 160.803 31.032 159.352 30.456C157.923 29.88 156.675 29.0693 155.608 28.024C154.563 26.9573 153.741 25.6987 153.144 24.248C152.568 22.776 152.28 21.1547 152.28 19.384C152.28 17.0373 152.781 14.9893 153.784 13.24C154.787 11.4693 156.173 10.0933 157.944 9.112C159.736 8.13067 161.773 7.64 164.056 7.64C166.381 7.64 168.429 8.13067 170.2 9.112C171.971 10.0933 173.357 11.4693 174.36 13.24C175.384 15.0107 175.896 17.0693 175.896 19.416C175.896 21.1653 175.597 22.776 175 24.248C174.424 25.6987 173.603 26.9573 172.536 28.024C171.491 29.0693 170.243 29.88 168.792 30.456C167.363 31.032 165.795 31.32 164.088 31.32ZM164.056 27.416C165.4 27.416 166.584 27.0747 167.608 26.392C168.632 25.7093 169.432 24.7707 170.008 23.576C170.605 22.36 170.904 20.952 170.904 19.352C170.904 17.7733 170.616 16.3973 170.04 15.224C169.464 14.0507 168.664 13.144 167.64 12.504C166.616 11.864 165.421 11.544 164.056 11.544C162.712 11.544 161.528 11.864 160.504 12.504C159.48 13.144 158.68 14.0507 158.104 15.224C157.549 16.376 157.272 17.752 157.272 19.352C157.272 20.9733 157.56 22.392 158.136 23.608C158.712 24.8027 159.512 25.7413 160.536 26.424C161.56 27.0853 162.733 27.416 164.056 27.416ZM177.491 31V7.96H183.859L194.099 28.312L192.531 28.696V7.96H197.331V31H190.963L180.723 10.648L182.291 10.264V31H177.491Z" fill="#F8CD43"/>
</svg>
