<svg width="34" height="35" viewBox="0 0 34 35" fill="none" xmlns="http://www.w3.org/2000/svg">
<path d="M2 29.756C2 27.6527 2.79018 25.6356 4.1967 24.1484C5.60322 22.6612 7.51088 21.8257 9.5 21.8257H24.5C26.4891 21.8257 28.3968 22.6612 29.8033 24.1484C31.2098 25.6356 32 27.6527 32 29.756C32 30.8076 31.6049 31.8161 30.9016 32.5597C30.1984 33.3034 29.2446 33.7211 28.25 33.7211H5.75C4.75544 33.7211 3.80161 33.3034 3.09835 32.5597C2.39509 31.8161 2 30.8076 2 29.756Z" stroke="#F8CD43" stroke-width="2.5" stroke-linejoin="round"/>
<path d="M17 13.8954C20.1066 13.8954 22.625 11.2325 22.625 7.94772C22.625 4.66288 20.1066 2 17 2C13.8934 2 11.375 4.66288 11.375 7.94772C11.375 11.2325 13.8934 13.8954 17 13.8954Z" stroke="#F8CD43" stroke-width="2.5"/>
</svg>
