<svg width="34" height="35" viewBox="0 0 34 35" fill="none" xmlns="http://www.w3.org/2000/svg">
<path d="M2 29.6573C2 27.5541 2.79018 25.537 4.1967 24.0498C5.60322 22.5626 7.51088 21.7271 9.5 21.7271H24.5C26.4891 21.7271 28.3968 22.5626 29.8033 24.0498C31.2098 25.537 32 27.5541 32 29.6573C32 30.709 31.6049 31.7175 30.9016 32.4611C30.1984 33.2047 29.2446 33.6225 28.25 33.6225H5.75C4.75544 33.6225 3.80161 33.2047 3.09835 32.4611C2.39509 31.7175 2 30.709 2 29.6573Z" stroke="#F8CD43" stroke-width="2.5" stroke-linejoin="round"/>
<path d="M17 13.7968C20.1066 13.7968 22.625 11.1339 22.625 7.84908C22.625 4.56425 20.1066 1.90137 17 1.90137C13.8934 1.90137 11.375 4.56425 11.375 7.84908C11.375 11.1339 13.8934 13.7968 17 13.7968Z" stroke="#F8CD43" stroke-width="2.5"/>
</svg>
